<?xml version="1.0" encoding="utf-8"?>
<!-- Generator: Adobe Illustrator 16.0.0, SVG Export Plug-In . SVG Version: 6.00 Build 0)  -->
<!DOCTYPE svg PUBLIC "-//W3C//DTD SVG 1.1//EN" "http://www.w3.org/Graphics/SVG/1.1/DTD/svg11.dtd">
<svg version="1.1" id="层_1" xmlns="http://www.w3.org/2000/svg" xmlns:xlink="http://www.w3.org/1999/xlink" x="0px" y="0px"
	 width="220px" height="180px" viewBox="0 0 220 180" enable-background="new 0 0 220 180" xml:space="preserve">
<g>
	<g>
		<path fill-rule="evenodd" clip-rule="evenodd" fill="#494646" d="M172.5,159.12c0-9.31,7.56-16.87,16.88-16.87
			c9.31,0,16.87,7.56,16.87,16.87c0,9.32-7.56,16.88-16.87,16.88C180.06,176,172.5,168.44,172.5,159.12z"/>
		<circle fill-rule="evenodd" clip-rule="evenodd" fill="#676464" cx="189" cy="158.75" r="9"/>
		<path fill-rule="evenodd" clip-rule="evenodd" fill="#EEEEEE" d="M184.5,158.75c0-2.49,2.01-4.5,4.5-4.5s4.5,2.01,4.5,4.5
			s-2.01,4.5-4.5,4.5S184.5,161.24,184.5,158.75z"/>
	</g>
	<path fill-rule="evenodd" clip-rule="evenodd" fill="#A3A1A1" d="M177.97,143.75c1.05,5.14,5.59,9,11.03,9s9.98-3.86,11.02-9
		H177.97z"/>
	<g>
		<path fill-rule="evenodd" clip-rule="evenodd" fill="#494646" d="M76.5,159.12c0-9.31,7.56-16.87,16.88-16.87
			c9.31,0,16.87,7.56,16.87,16.87c0,9.32-7.56,16.88-16.87,16.88C84.06,176,76.5,168.44,76.5,159.12z"/>
		<circle fill-rule="evenodd" clip-rule="evenodd" fill="#676464" cx="93" cy="158.75" r="9"/>
		<path fill-rule="evenodd" clip-rule="evenodd" fill="#EEEEEE" d="M88.5,158.75c0-2.49,2.01-4.5,4.5-4.5s4.5,2.01,4.5,4.5
			s-2.01,4.5-4.5,4.5S88.5,161.24,88.5,158.75z"/>
	</g>
	<path fill-rule="evenodd" clip-rule="evenodd" fill="#D1D1D1" d="M39,11l0.75,9h9.75L63,143.75h151.13H216v-0.38
		c1.76-0.73,3-2.47,3-4.5c0-2.02-1.24-3.76-3-4.5V134h-1.87H71.25L58.5,11H39z"/>
	<path fill-rule="evenodd" clip-rule="evenodd" fill="#90C2F6" d="M66,38l2.25,22.5h4.5v53.14c0,5.86,4.75,10.61,10.61,10.61h110.78
		c5.86,0,10.61-4.75,10.61-10.61V60.5h10.5L217.5,38H66z M98.25,60.5h5.25v47.62c0,1.45-1.18,2.63-2.62,2.63
		c-1.45,0-2.63-1.18-2.63-2.63V60.5z M124.5,60.5h5.25v47.62c0,1.45-1.18,2.63-2.62,2.63c-1.45,0-2.63-1.18-2.63-2.63V60.5z
		 M150,60.5h5.25v47.62c0,1.45-1.18,2.63-2.62,2.63c-1.45,0-2.63-1.18-2.63-2.63V60.5z M176.25,60.5h5.25v47.62
		c0,1.45-1.18,2.63-2.62,2.63c-1.45,0-2.63-1.18-2.63-2.63V60.5z"/>
	<path fill-rule="evenodd" clip-rule="evenodd" fill="#6192C1" d="M98.25,108.12c0,1.45,1.18,2.63,2.63,2.63
		c1.44,0,2.62-1.18,2.62-2.63c0-0.12-0.01-0.25-0.03-0.37h-5.19C98.26,107.87,98.25,108,98.25,108.12z M124.5,108.12
		c0,1.45,1.18,2.63,2.63,2.63c1.44,0,2.62-1.18,2.62-2.63c0-0.12-0.01-0.25-0.03-0.37h-5.19C124.51,107.87,124.5,108,124.5,108.12z
		 M150,108.12c0,1.45,1.18,2.63,2.63,2.63c1.44,0,2.62-1.18,2.62-2.63c0-0.12-0.01-0.25-0.03-0.37h-5.19
		C150.01,107.87,150,108,150,108.12z M176.25,108.12c0,1.45,1.18,2.63,2.63,2.63c1.44,0,2.62-1.18,2.62-2.63
		c0-0.12-0.01-0.25-0.03-0.37h-5.19C176.26,107.87,176.25,108,176.25,108.12z"/>
	<path fill-rule="evenodd" clip-rule="evenodd" fill="#A3A1A1" d="M81.97,143.75c1.05,5.14,5.59,9,11.03,9s9.98-3.86,11.02-9H81.97z
		"/>
	<path fill-rule="evenodd" clip-rule="evenodd" fill="#A3A1A1" d="M177.97,143.75c1.05,5.14,5.59,9,11.03,9s9.98-3.86,11.02-9
		H177.97z"/>
	<path fill-rule="evenodd" clip-rule="evenodd" fill="#FF5B46" d="M6.12,5.75h29.01c2.55,0,4.62,2.07,4.62,4.62v11.76
		c0,2.55-2.07,4.62-4.62,4.62H6.12c-2.55,0-4.62-2.07-4.62-4.62V10.37C1.5,7.82,3.57,5.75,6.12,5.75z"/>
	<g>
		<path fill-rule="evenodd" clip-rule="evenodd" fill="#FA3518" d="M6.75,11.75h27c0.41,0,0.75,0.34,0.75,0.75s-0.34,0.75-0.75,0.75
			h-27C6.34,13.25,6,12.91,6,12.5S6.34,11.75,6.75,11.75z"/>
		<path fill-rule="evenodd" clip-rule="evenodd" fill="#FA3518" d="M6.75,16.25h27c0.41,0,0.75,0.34,0.75,0.75s-0.34,0.75-0.75,0.75
			h-27C6.34,17.75,6,17.41,6,17S6.34,16.25,6.75,16.25z"/>
		<path fill-rule="evenodd" clip-rule="evenodd" fill="#FA3518" d="M6.75,20.75h27c0.41,0,0.75,0.34,0.75,0.75s-0.34,0.75-0.75,0.75
			h-27C6.34,22.25,6,21.91,6,21.5S6.34,20.75,6.75,20.75z"/>
	</g>
</g>
<rect x="72.75" y="60.5" opacity="0.2" fill-rule="evenodd" clip-rule="evenodd" fill="#464637" width="132" height="4.5"/>
</svg>
